<mxfile host="app.diagrams.net" agent="Mozilla/5.0 (Windows NT 10.0; Win64; x64) AppleWebKit/537.36 (KHTML, like Gecko) Chrome/131.0.0.0 Safari/537.36" version="25.0.3">
  <diagram id="C5RBs43oDa-KdzZeNtuy" name="Page-1">
    <mxGraphModel dx="1050" dy="522" grid="1" gridSize="10" guides="1" tooltips="1" connect="1" arrows="1" fold="1" page="1" pageScale="1" pageWidth="827" pageHeight="1169" math="0" shadow="0">
      <root>
        <mxCell id="WIyWlLk6GJQsqaUBKTNV-0" />
        <mxCell id="WIyWlLk6GJQsqaUBKTNV-1" parent="WIyWlLk6GJQsqaUBKTNV-0" />
        <mxCell id="O6TFbuWVm1BRk4y4NG4k-2" style="edgeStyle=orthogonalEdgeStyle;rounded=0;orthogonalLoop=1;jettySize=auto;html=1;" edge="1" parent="WIyWlLk6GJQsqaUBKTNV-1" source="O6TFbuWVm1BRk4y4NG4k-0" target="O6TFbuWVm1BRk4y4NG4k-1">
          <mxGeometry relative="1" as="geometry" />
        </mxCell>
        <mxCell id="O6TFbuWVm1BRk4y4NG4k-0" value="Start" style="ellipse;whiteSpace=wrap;html=1;" vertex="1" parent="WIyWlLk6GJQsqaUBKTNV-1">
          <mxGeometry x="310" y="10" width="120" height="80" as="geometry" />
        </mxCell>
        <mxCell id="O6TFbuWVm1BRk4y4NG4k-1" value="Nhap hai so&lt;div&gt;&amp;nbsp;bat ki a,b&lt;/div&gt;" style="shape=parallelogram;perimeter=parallelogramPerimeter;whiteSpace=wrap;html=1;fixedSize=1;" vertex="1" parent="WIyWlLk6GJQsqaUBKTNV-1">
          <mxGeometry x="310" y="170" width="120" height="60" as="geometry" />
        </mxCell>
        <mxCell id="O6TFbuWVm1BRk4y4NG4k-3" value="chia = a/b" style="rounded=1;whiteSpace=wrap;html=1;absoluteArcSize=1;arcSize=14;strokeWidth=2;" vertex="1" parent="WIyWlLk6GJQsqaUBKTNV-1">
          <mxGeometry x="310" y="490" width="100" height="40" as="geometry" />
        </mxCell>
        <mxCell id="O6TFbuWVm1BRk4y4NG4k-18" style="edgeStyle=orthogonalEdgeStyle;rounded=0;orthogonalLoop=1;jettySize=auto;html=1;" edge="1" parent="WIyWlLk6GJQsqaUBKTNV-1" source="O6TFbuWVm1BRk4y4NG4k-4" target="O6TFbuWVm1BRk4y4NG4k-3">
          <mxGeometry relative="1" as="geometry" />
        </mxCell>
        <mxCell id="O6TFbuWVm1BRk4y4NG4k-4" value="nhan = a*b" style="rounded=1;whiteSpace=wrap;html=1;absoluteArcSize=1;arcSize=14;strokeWidth=2;" vertex="1" parent="WIyWlLk6GJQsqaUBKTNV-1">
          <mxGeometry x="310" y="420" width="100" height="40" as="geometry" />
        </mxCell>
        <mxCell id="O6TFbuWVm1BRk4y4NG4k-17" style="edgeStyle=orthogonalEdgeStyle;rounded=0;orthogonalLoop=1;jettySize=auto;html=1;" edge="1" parent="WIyWlLk6GJQsqaUBKTNV-1" source="O6TFbuWVm1BRk4y4NG4k-5" target="O6TFbuWVm1BRk4y4NG4k-4">
          <mxGeometry relative="1" as="geometry" />
        </mxCell>
        <mxCell id="O6TFbuWVm1BRk4y4NG4k-5" value="tru = a-b" style="rounded=1;whiteSpace=wrap;html=1;absoluteArcSize=1;arcSize=14;strokeWidth=2;" vertex="1" parent="WIyWlLk6GJQsqaUBKTNV-1">
          <mxGeometry x="310" y="350" width="100" height="40" as="geometry" />
        </mxCell>
        <mxCell id="O6TFbuWVm1BRk4y4NG4k-14" style="edgeStyle=orthogonalEdgeStyle;rounded=0;orthogonalLoop=1;jettySize=auto;html=1;entryX=0.5;entryY=0;entryDx=0;entryDy=0;" edge="1" parent="WIyWlLk6GJQsqaUBKTNV-1" source="O6TFbuWVm1BRk4y4NG4k-6" target="O6TFbuWVm1BRk4y4NG4k-5">
          <mxGeometry relative="1" as="geometry" />
        </mxCell>
        <mxCell id="O6TFbuWVm1BRk4y4NG4k-6" value="cong = a+b" style="rounded=1;whiteSpace=wrap;html=1;absoluteArcSize=1;arcSize=14;strokeWidth=2;" vertex="1" parent="WIyWlLk6GJQsqaUBKTNV-1">
          <mxGeometry x="310" y="280" width="100" height="30" as="geometry" />
        </mxCell>
        <mxCell id="O6TFbuWVm1BRk4y4NG4k-22" style="edgeStyle=orthogonalEdgeStyle;rounded=0;orthogonalLoop=1;jettySize=auto;html=1;" edge="1" parent="WIyWlLk6GJQsqaUBKTNV-1" source="O6TFbuWVm1BRk4y4NG4k-10" target="O6TFbuWVm1BRk4y4NG4k-21">
          <mxGeometry relative="1" as="geometry" />
        </mxCell>
        <mxCell id="O6TFbuWVm1BRk4y4NG4k-10" value="cong,tru,nhan,chia" style="strokeWidth=2;html=1;shape=mxgraph.flowchart.display;whiteSpace=wrap;" vertex="1" parent="WIyWlLk6GJQsqaUBKTNV-1">
          <mxGeometry x="294" y="610" width="120" height="60" as="geometry" />
        </mxCell>
        <mxCell id="O6TFbuWVm1BRk4y4NG4k-16" style="edgeStyle=orthogonalEdgeStyle;rounded=0;orthogonalLoop=1;jettySize=auto;html=1;entryX=0.608;entryY=-0.013;entryDx=0;entryDy=0;entryPerimeter=0;" edge="1" parent="WIyWlLk6GJQsqaUBKTNV-1" source="O6TFbuWVm1BRk4y4NG4k-1" target="O6TFbuWVm1BRk4y4NG4k-6">
          <mxGeometry relative="1" as="geometry" />
        </mxCell>
        <mxCell id="O6TFbuWVm1BRk4y4NG4k-20" style="edgeStyle=orthogonalEdgeStyle;rounded=0;orthogonalLoop=1;jettySize=auto;html=1;entryX=0.5;entryY=0;entryDx=0;entryDy=0;entryPerimeter=0;" edge="1" parent="WIyWlLk6GJQsqaUBKTNV-1" source="O6TFbuWVm1BRk4y4NG4k-3" target="O6TFbuWVm1BRk4y4NG4k-10">
          <mxGeometry relative="1" as="geometry" />
        </mxCell>
        <mxCell id="O6TFbuWVm1BRk4y4NG4k-21" value="End" style="strokeWidth=2;html=1;shape=mxgraph.flowchart.start_1;whiteSpace=wrap;" vertex="1" parent="WIyWlLk6GJQsqaUBKTNV-1">
          <mxGeometry x="304" y="740" width="100" height="60" as="geometry" />
        </mxCell>
      </root>
    </mxGraphModel>
  </diagram>
</mxfile>
